<?xml version="1.0" standalone="no"?><!DOCTYPE svg PUBLIC "-//W3C//DTD SVG 1.1//EN" "http://www.w3.org/Graphics/SVG/1.1/DTD/svg11.dtd"><svg t="1764340588767" class="icon" viewBox="0 0 1024 1024" version="1.1" xmlns="http://www.w3.org/2000/svg" p-id="7160" xmlns:xlink="http://www.w3.org/1999/xlink" width="200" height="200"><path d="M426.666667 541.330286h170.666666v-58.660572h-170.666666v58.660572z" p-id="7161"></path><path d="M138.825143 384H170.666667v437.150476c0 17.798095 14.384762 32.182857 32.182857 32.182857h618.300952c17.798095 0 32.182857-14.384762 32.182857-32.182857V384h31.841524c17.749333 0 32.158476-14.384762 32.158476-32.182857V202.849524c0-17.798095-14.384762-32.182857-32.182857-32.182857H138.873905c-17.798095 0-32.182857 14.384762-32.182857 32.182857v148.967619c0 17.798095 14.384762 32.182857 32.182857 32.182857z m26.502095-154.672762H858.697143v96.012191H165.302857V229.327238z m64 154.672762h565.345524v410.672762H229.327238V384z" p-id="7162"></path></svg>